<svg width="1440" height="360" viewBox="0 0 1440 360" fill="none" xmlns="http://www.w3.org/2000/svg">
<circle cx="179.775" cy="179.775" r="179.775" fill="url(#paint0_linear)" fill-opacity="0.08"/>
<path d="M320.268 167.887C321.515 141.985 303.424 124.802 283.007 113.005L269.736 190.969C278.924 190.456 283.416 193.944 285.049 195.585C287.091 197.637 292.195 203.792 286.07 213.537C298.83 211.486 318.761 199.175 320.268 167.887Z" fill="url(#paint1_linear)"/>
<path fill-rule="evenodd" clip-rule="evenodd" d="M146.186 77.1166L130.363 61.216C154.182 58.3094 217.031 62.0367 277.873 100.198C278.894 104.301 277.873 110.456 277.873 110.456L282.977 113.021C287.401 119.347 294.921 137.334 289.613 158.671C284.305 180.009 275.151 189.104 271.238 190.985C263.071 190.985 249.188 195.704 244.696 216.631C240.204 237.558 231.595 242.106 227.852 241.764L138.019 242.79L78.8104 207.912L70.1333 135.59L86.9771 113.021L117.092 88.4008L138.529 79.6812L146.186 77.1166ZM252.284 106.992C248.323 111.118 244.619 113.098 243.561 113.635C220.43 108.714 212.096 96.7475 212.096 96.7475C233.915 96.6129 253.608 101.802 268.016 110.581C268.016 110.581 260.216 108.054 252.284 106.992Z" fill="url(#paint2_linear)"/>
<path fill-rule="evenodd" clip-rule="evenodd" d="M243.905 216.639C228.048 224.42 209.249 228.925 189.091 228.925C132.43 228.925 86.4971 193.331 86.4971 149.422C86.4971 116.988 111.561 89.0901 147.498 76.7246C79.1494 80.6627 24.2256 135.57 24.2256 203.321C24.2256 281.512 93.9248 346.12 179.903 346.12C244.105 346.12 297.547 308.896 325.49 259.094C287.041 267.741 241.526 251.301 243.905 216.639Z" fill="url(#paint3_linear)"/>
<path d="M505.949 251.255C531.492 251.255 547.8 242.02 561.75 226.891L546.228 211.172C534.439 222.175 523.436 228.856 506.735 228.856C480.406 228.856 461.347 207.046 461.347 180.127V179.734C461.347 152.816 480.602 131.399 506.538 131.399C522.453 131.399 534.046 138.08 545.246 148.297L560.768 130.417C547.603 117.842 532.278 109 506.735 109C465.276 109 436 141.027 436 180.127V180.52C436 220.014 465.866 251.255 505.949 251.255Z" fill="url(#paint4_linear)"/>
<path d="M649.132 251.255C691.376 251.255 721.242 218.638 721.242 180.127V179.734C721.242 141.027 691.769 109 649.525 109C607.281 109 577.415 141.616 577.415 180.127V180.52C577.415 219.228 606.888 251.255 649.132 251.255ZM649.525 228.856C622.017 228.856 602.762 206.849 602.762 180.127V179.734C602.762 153.013 621.821 131.399 649.132 131.399C676.64 131.399 695.896 153.406 695.896 180.127V180.52C695.896 207.242 676.837 228.856 649.525 228.856Z" fill="url(#paint5_linear)"/>
<path d="M750.442 248.897H774.216V151.048L850.059 248.897H870.297V111.358H846.523V206.456L772.841 111.358H750.442V248.897Z" fill="url(#paint6_linear)"/>
<path d="M905.672 248.897H929.447V151.048L1005.29 248.897H1025.53V111.358H1001.75V206.456L928.071 111.358H905.672V248.897Z" fill="url(#paint7_linear)"/>
<path d="M1060.9 248.897H1163.86V227.284H1085.07V190.541H1154.04V168.731H1085.07V132.971H1162.88V111.358H1060.9V248.897Z" fill="url(#paint8_linear)"/>
<path d="M1256.39 251.255C1281.93 251.255 1298.24 242.02 1312.19 226.891L1296.67 211.172C1284.88 222.175 1273.88 228.856 1257.18 228.856C1230.85 228.856 1211.79 207.046 1211.79 180.127V179.734C1211.79 152.816 1231.04 131.399 1256.98 131.399C1272.89 131.399 1284.49 138.08 1295.69 148.297L1311.21 130.417C1298.04 117.842 1282.72 109 1257.18 109C1215.72 109 1186.44 141.027 1186.44 180.127V180.52C1186.44 220.014 1216.31 251.255 1256.39 251.255Z" fill="url(#paint9_linear)"/>
<path d="M1371.38 248.897H1395.55V133.757H1439.37V111.358H1327.57V133.757H1371.38V248.897Z" fill="url(#paint10_linear)"/>
<defs>
<linearGradient id="paint0_linear" x1="179.775" y1="125.811" x2="179.775" y2="364.278" gradientUnits="userSpaceOnUse">
<stop stop-color="white"/>
<stop offset="1" stop-color="white" stop-opacity="0"/>
</linearGradient>
<linearGradient id="paint1_linear" x1="320.228" y1="201.524" x2="350.598" y2="89.9742" gradientUnits="userSpaceOnUse">
<stop stop-color="white"/>
<stop offset="1" stop-color="#E2F8FF"/>
</linearGradient>
<linearGradient id="paint2_linear" x1="414" y1="453" x2="504.542" y2="92.3913" gradientUnits="userSpaceOnUse">
<stop stop-color="#E1CAFF"/>
<stop offset="1" stop-color="#B4EDFF"/>
</linearGradient>
<linearGradient id="paint3_linear" x1="324.893" y1="313.927" x2="363.648" y2="-2.39789" gradientUnits="userSpaceOnUse">
<stop stop-color="#F3EAFF"/>
<stop offset="1" stop-color="#B4EDFF"/>
<stop offset="1" stop-color="#F7FDFF"/>
</linearGradient>
<linearGradient id="paint4_linear" x1="1796" y1="311" x2="1802.76" y2="88.3843" gradientUnits="userSpaceOnUse">
<stop stop-color="#F3EAFF"/>
<stop offset="1" stop-color="#F7FDFF"/>
<stop offset="1" stop-color="white"/>
</linearGradient>
<linearGradient id="paint5_linear" x1="1796" y1="311" x2="1802.76" y2="88.3843" gradientUnits="userSpaceOnUse">
<stop stop-color="#F3EAFF"/>
<stop offset="1" stop-color="#F7FDFF"/>
<stop offset="1" stop-color="white"/>
</linearGradient>
<linearGradient id="paint6_linear" x1="1796" y1="311" x2="1802.76" y2="88.3843" gradientUnits="userSpaceOnUse">
<stop stop-color="#F3EAFF"/>
<stop offset="1" stop-color="#F7FDFF"/>
<stop offset="1" stop-color="white"/>
</linearGradient>
<linearGradient id="paint7_linear" x1="1796" y1="311" x2="1802.76" y2="88.3843" gradientUnits="userSpaceOnUse">
<stop stop-color="#F3EAFF"/>
<stop offset="1" stop-color="#F7FDFF"/>
<stop offset="1" stop-color="white"/>
</linearGradient>
<linearGradient id="paint8_linear" x1="1796" y1="311" x2="1802.76" y2="88.3843" gradientUnits="userSpaceOnUse">
<stop stop-color="#F3EAFF"/>
<stop offset="1" stop-color="#F7FDFF"/>
<stop offset="1" stop-color="white"/>
</linearGradient>
<linearGradient id="paint9_linear" x1="1796" y1="311" x2="1802.76" y2="88.3843" gradientUnits="userSpaceOnUse">
<stop stop-color="#F3EAFF"/>
<stop offset="1" stop-color="#F7FDFF"/>
<stop offset="1" stop-color="white"/>
</linearGradient>
<linearGradient id="paint10_linear" x1="1796" y1="311" x2="1802.76" y2="88.3843" gradientUnits="userSpaceOnUse">
<stop stop-color="#F3EAFF"/>
<stop offset="1" stop-color="#F7FDFF"/>
<stop offset="1" stop-color="white"/>
</linearGradient>
</defs>
</svg>
