<svg width="488" height="395" viewBox="0 0 488 395" fill="none" xmlns="http://www.w3.org/2000/svg">
<circle cx="246.5" cy="198.5" r="41.5" fill="url(#paint0_linear)" fill-opacity="0.05"/>
<path d="M278.932 195.756C279.22 189.776 275.044 185.81 270.331 183.086L267.268 201.084C269.388 200.966 270.425 201.771 270.802 202.15C271.274 202.623 272.452 204.044 271.038 206.294C273.984 205.82 278.585 202.978 278.932 195.756Z" fill="url(#paint1_linear)"/>
<path fill-rule="evenodd" clip-rule="evenodd" d="M238.745 174.802L235.092 171.131C240.591 170.46 255.099 171.321 269.144 180.13C269.38 181.077 269.144 182.498 269.144 182.498L270.322 183.09C271.344 184.551 273.08 188.703 271.854 193.628C270.629 198.554 268.516 200.654 267.612 201.088C265.727 201.088 262.522 202.177 261.485 207.008C260.449 211.839 258.461 212.889 257.597 212.81L236.86 213.047L223.192 204.995L221.189 188.3L225.077 183.09L232.029 177.407L236.977 175.394L238.745 174.802ZM263.237 181.699C262.323 182.651 261.468 183.108 261.224 183.232C255.884 182.096 253.96 179.334 253.96 179.334C258.997 179.303 263.543 180.501 266.869 182.527C266.869 182.527 265.069 181.944 263.237 181.699Z" fill="url(#paint2_linear)"/>
<path fill-rule="evenodd" clip-rule="evenodd" d="M261.304 207.009C257.643 208.805 253.303 209.845 248.649 209.845C235.569 209.845 224.966 201.629 224.966 191.493C224.966 184.006 230.751 177.566 239.046 174.711C223.269 175.622 210.592 188.296 210.592 203.935C210.592 221.985 226.682 236.899 246.529 236.899C261.35 236.899 273.686 228.307 280.137 216.81C271.261 218.806 260.754 215.011 261.304 207.009Z" fill="url(#paint3_linear)"/>
<circle cx="179" cy="133" r="4" fill="#B8D5F7"/>
<circle r="4" transform="matrix(-1 0 0 1 308 133)" fill="#B8D5F7"/>
<circle r="4" transform="matrix(-1 0 0 1 222 133)" fill="#B8D5F7"/>
<circle cx="222" cy="262" r="4" transform="rotate(-180 222 262)" fill="#B8D5F7"/>
<circle r="4" transform="matrix(-1 0 0 1 265 133)" fill="#B8D5F7"/>
<circle cx="135" cy="133" r="4" fill="#B8D5F7"/>
<circle r="4" transform="matrix(-1 0 0 1 352 133)" fill="#B8D5F7"/>
<circle cx="91" cy="133" r="4" fill="#B8D5F7"/>
<circle opacity="0.2" r="4" transform="matrix(-1 0 0 1 396 133)" fill="#B8D5F7"/>
<circle opacity="0.6" cx="47" cy="133" r="4" fill="#B8D5F7"/>
<circle r="4" transform="matrix(-1 0 0 1 440 133)" fill="#B8D5F7"/>
<circle r="4" transform="matrix(-1 0 0 1 484 133)" fill="#B8D5F7"/>
<circle r="4" transform="matrix(-1 0 0 1 4 133)" fill="#B8D5F7"/>
<circle cx="179" cy="90" r="4" fill="url(#paint4_linear)"/>
<circle cx="396" cy="262" r="4" transform="rotate(-90 396 262)" fill="url(#paint5_linear)"/>
<circle opacity="0.5" r="4" transform="matrix(-1 0 0 1 308 90)" fill="#B8D5F7"/>
<circle r="4" transform="matrix(-1 0 0 1 222 90)" fill="#B8D5F7"/>
<circle cx="222" cy="305" r="4" transform="rotate(-180 222 305)" fill="#B8D5F7"/>
<circle r="4" transform="matrix(-1 0 0 1 265 90)" fill="#B8D5F7"/>
<circle cx="265" cy="305" r="4" transform="rotate(-180 265 305)" fill="#B8D5F7"/>
<circle opacity="0.2" cx="265" cy="348" r="4" transform="rotate(-180 265 348)" fill="#B8D5F7"/>
<circle cx="265" cy="262" r="4" transform="rotate(-180 265 262)" fill="#B8D5F7"/>
<circle cx="135" cy="90" r="4" fill="url(#paint6_linear)"/>
<circle cx="396" cy="306" r="4" transform="rotate(-90 396 306)" fill="url(#paint7_linear)"/>
<circle r="4" transform="matrix(-1 0 0 1 352 90)" fill="#B8D5F7"/>
<circle cx="91" cy="90" r="4" fill="url(#paint8_linear)"/>
<circle opacity="0.2" r="4" transform="matrix(-1 0 0 1 396 90)" fill="#B8D5F7"/>
<circle opacity="0.6" cx="47" cy="90" r="4" fill="#B8D5F7"/>
<circle opacity="0.5" r="4" transform="matrix(-1 0 0 1 440 90)" fill="#B8D5F7"/>
<circle opacity="0.4" cx="179" cy="47" r="4" fill="#B8D5F7"/>
<circle opacity="0.5" r="4" transform="matrix(-1 0 0 1 308 47)" fill="#B8D5F7"/>
<circle opacity="0.2" r="4" transform="matrix(-1 0 0 1 222 47)" fill="#B8D5F7"/>
<circle opacity="0.2" cx="222" cy="348" r="4" transform="rotate(-180 222 348)" fill="#B8D5F7"/>
<circle opacity="0.2" cx="135" cy="47" r="4" fill="#B8D5F7"/>
<circle r="4" transform="matrix(-1 0 0 1 352 47)" fill="#B8D5F7"/>
<circle opacity="0.2" cx="91" cy="47" r="4" fill="#B8D5F7"/>
<circle opacity="0.2" r="4" transform="matrix(-1 0 0 1 396 47)" fill="#B8D5F7"/>
<circle opacity="0.4" cx="179" cy="4" r="4" fill="#B8D5F7"/>
<circle opacity="0.5" r="4" transform="matrix(-1 0 0 1 308 4)" fill="#B8D5F7"/>
<circle opacity="0.2" r="4" transform="matrix(-1 0 0 1 222 4)" fill="#B8D5F7"/>
<circle opacity="0.2" cx="222" cy="391" r="4" transform="rotate(-180 222 391)" fill="#B8D5F7"/>
<circle opacity="0.1" cx="135" cy="4" r="4" fill="#B8D5F7"/>
<circle opacity="0.2" r="4" transform="matrix(-1 0 0 1 352 4)" fill="#B8D5F7"/>
<circle cx="179" cy="176" r="4" fill="#B8D5F7"/>
<circle r="4" transform="matrix(-1 0 0 1 308 176)" fill="#B8D5F7"/>
<circle cx="135" cy="176" r="4" fill="#B8D5F7"/>
<circle r="4" transform="matrix(-1 0 0 1 352 176)" fill="#B8D5F7"/>
<circle cx="91" cy="176" r="4" fill="#B8D5F7"/>
<circle r="4" transform="matrix(-1 0 0 1 396 176)" fill="#B8D5F7"/>
<circle opacity="0.6" r="4" transform="matrix(-1 0 0 1 396 219)" fill="#B8D5F7"/>
<circle cx="47" cy="176" r="4" fill="#B8D5F7"/>
<circle r="4" transform="matrix(-1 0 0 1 440 176)" fill="#B8D5F7"/>
<circle r="4" transform="matrix(-1 0 0 1 484 176)" fill="#B8D5F7"/>
<circle r="4" transform="matrix(-1 0 0 1 4 176)" fill="#B8D5F7"/>
<circle cx="179" cy="219" r="4" fill="#B8D5F7"/>
<circle r="4" transform="matrix(-1 0 0 1 308 219)" fill="#B8D5F7"/>
<circle cx="135" cy="219" r="4" fill="#B8D5F7"/>
<circle r="4" transform="matrix(-1 0 0 1 352 219)" fill="#B8D5F7"/>
<circle cx="91" cy="219" r="4" fill="#B8D5F7"/>
<circle r="4" transform="matrix(-1 0 0 1 396 262)" fill="url(#paint9_linear)"/>
<circle cx="47" cy="219" r="4" fill="#B8D5F7"/>
<circle opacity="0.2" r="4" transform="matrix(-1 0 0 1 440 219)" fill="#B8D5F7"/>
<circle opacity="0.2" r="4" transform="matrix(-1 0 0 1 484 219)" fill="#B8D5F7"/>
<circle opacity="0.2" r="4" transform="matrix(-1 0 0 1 4 219)" fill="#B8D5F7"/>
<circle cx="179" cy="262" r="4" fill="#B8D5F7"/>
<circle opacity="0.6" r="4" transform="matrix(-1 0 0 1 308 262)" fill="#B8D5F7"/>
<circle opacity="0.4" cx="135" cy="262" r="4" fill="#B8D5F7"/>
<circle r="4" transform="matrix(-1 0 0 1 352 262)" fill="#B8D5F7"/>
<circle cx="91" cy="262" r="4" fill="#B8D5F7"/>
<circle cx="47" cy="262" r="4" fill="#B8D5F7"/>
<circle opacity="0.2" r="4" transform="matrix(-1 0 0 1 440 262)" fill="#B8D5F7"/>
<circle opacity="0.2" r="4" transform="matrix(-1 0 0 1 484 262)" fill="#B8D5F7"/>
<circle opacity="0.2" r="4" transform="matrix(-1 0 0 1 4 262)" fill="#B8D5F7"/>
<circle opacity="0.6" r="4" transform="matrix(-1 0 0 1 308 305)" fill="#B8D5F7"/>
<circle opacity="0.2" r="4" transform="matrix(-1 0 0 1 352 305)" fill="#B8D5F7"/>
<circle opacity="0.2" r="4" transform="matrix(-1 0 0 1 396 348)" fill="url(#paint10_linear)"/>
<circle opacity="0.2" cx="47" cy="305" r="4" fill="#B8D5F7"/>
<circle opacity="0.2" r="4" transform="matrix(-1 0 0 1 440 305)" fill="#B8D5F7"/>
<circle opacity="0.2" cx="179" cy="348" r="4" fill="#B8D5F7"/>
<circle opacity="0.6" r="4" transform="matrix(-1 0 0 1 308 348)" fill="#B8D5F7"/>
<circle opacity="0.4" cx="135" cy="348" r="4" fill="#B8D5F7"/>
<circle opacity="0.1" r="4" transform="matrix(-1 0 0 1 352 348)" fill="#B8D5F7"/>
<circle opacity="0.2" cx="91" cy="348" r="4" fill="#B8D5F7"/>
<circle opacity="0.2" r="4" transform="matrix(-1 0 0 1 396 348)" fill="#B8D5F7"/>
<circle opacity="0.2" cx="179" cy="391" r="4" fill="#B8D5F7"/>
<circle opacity="0.2" r="4" transform="matrix(-1 0 0 1 308 391)" fill="#B8D5F7"/>
<circle opacity="0.4" cx="135" cy="391" r="4" fill="#B8D5F7"/>
<circle opacity="0.1" r="4" transform="matrix(-1 0 0 1 352 391)" fill="#B8D5F7"/>
<rect opacity="0.3" x="63.0002" y="90" width="39.5978" height="39.5978" transform="rotate(-45 63.0002 90)" fill="url(#paint11_linear)"/>
<rect x="80" y="90" width="15.5565" height="15.5565" transform="rotate(-45 80 90)" fill="url(#paint12_linear)"/>
<rect x="369" y="348" width="38.1839" height="38.1839" rx="19.092" transform="rotate(-45 369 348)" fill="url(#paint13_linear)"/>
<rect opacity="0.4" x="391" y="359" width="15.5565" height="15.5565" rx="7.77824" transform="rotate(-135 391 359)" fill="url(#paint14_linear)"/>
<rect opacity="0.7" x="401" y="359" width="15.5565" height="15.5565" rx="7.77824" transform="rotate(-135 401 359)" fill="url(#paint15_linear)"/>
<path d="M131 86H179C181.209 86 183 87.7909 183 90V90C183 92.2091 181.209 94 179 94H131V86Z" fill="url(#paint16_linear)"/>
<path d="M392 310L392 262C392 259.791 393.791 258 396 258V258C398.209 258 400 259.791 400 262L400 310L392 310Z" fill="url(#paint17_linear)"/>
<circle cx="179" cy="305" r="4" fill="url(#paint18_linear)"/>
<circle cx="135" cy="305" r="4" fill="url(#paint19_linear)"/>
<path d="M131 301H179C181.209 301 183 302.791 183 305V305C183 307.209 181.209 309 179 309H131V301Z" fill="url(#paint20_linear)"/>
<circle cx="91" cy="305" r="21" fill="url(#paint21_linear)"/>
<circle cx="91" cy="305" r="9" fill="url(#paint22_linear)"/>
<circle cx="396" cy="133" r="4" transform="rotate(90 396 133)" fill="url(#paint23_linear)"/>
<circle cx="396" cy="89" r="4" transform="rotate(90 396 89)" fill="url(#paint24_linear)"/>
<path d="M400 85L400 133C400 135.209 398.209 137 396 137V137C393.791 137 392 135.209 392 133L392 85L400 85Z" fill="url(#paint25_linear)"/>
<circle cx="396" cy="45" r="21" transform="rotate(90 396 45)" fill="url(#paint26_linear)"/>
<circle cx="396" cy="45" r="9" transform="rotate(90 396 45)" fill="url(#paint27_linear)"/>
<defs>
<linearGradient id="paint0_linear" x1="246.5" y1="186.043" x2="246.5" y2="241.091" gradientUnits="userSpaceOnUse">
<stop stop-color="#01E8F8"/>
<stop offset="1" stop-color="#01E8F8" stop-opacity="0"/>
</linearGradient>
<linearGradient id="paint1_linear" x1="273.157" y1="189.65" x2="274.732" y2="209.982" gradientUnits="userSpaceOnUse">
<stop stop-color="#01E8F7"/>
<stop offset="1" stop-color="#00C2FF"/>
</linearGradient>
<linearGradient id="paint2_linear" x1="237.718" y1="175.468" x2="259.097" y2="209.399" gradientUnits="userSpaceOnUse">
<stop stop-color="#01E8F7"/>
<stop offset="1" stop-color="#00B3EC"/>
</linearGradient>
<linearGradient id="paint3_linear" x1="245.662" y1="192.301" x2="247.571" y2="247.045" gradientUnits="userSpaceOnUse">
<stop stop-color="#01E8F7"/>
<stop offset="1" stop-color="#00C2FF"/>
</linearGradient>
<linearGradient id="paint4_linear" x1="167.936" y1="78.125" x2="186.246" y2="84.1752" gradientUnits="userSpaceOnUse">
<stop stop-color="#7BFFDA"/>
<stop offset="1" stop-color="#9D9BFF"/>
</linearGradient>
<linearGradient id="paint5_linear" x1="393.911" y1="256.84" x2="401.602" y2="262.588" gradientUnits="userSpaceOnUse">
<stop stop-color="#FFC58F"/>
<stop offset="1" stop-color="#FF7C7C"/>
</linearGradient>
<linearGradient id="paint6_linear" x1="123.936" y1="78.125" x2="142.246" y2="84.1752" gradientUnits="userSpaceOnUse">
<stop stop-color="#7BFFDA"/>
<stop offset="1" stop-color="#9D9BFF"/>
</linearGradient>
<linearGradient id="paint7_linear" x1="393.911" y1="300.84" x2="401.602" y2="306.588" gradientUnits="userSpaceOnUse">
<stop stop-color="#FFC58F"/>
<stop offset="1" stop-color="#FF7C7C"/>
</linearGradient>
<linearGradient id="paint8_linear" x1="89.5885" y1="86.858" x2="93.9355" y2="92.5426" gradientUnits="userSpaceOnUse">
<stop stop-color="#01E8F7"/>
<stop offset="1" stop-color="#00B3EC"/>
</linearGradient>
<linearGradient id="paint9_linear" x1="1.91109" y1="-1.16016" x2="9.60196" y2="4.58829" gradientUnits="userSpaceOnUse">
<stop stop-color="#FFC58F"/>
<stop offset="1" stop-color="#FF7C7C"/>
</linearGradient>
<linearGradient id="paint10_linear" x1="2.58846" y1="0.857974" x2="6.93546" y2="6.54264" gradientUnits="userSpaceOnUse">
<stop stop-color="#01E8F7"/>
<stop offset="1" stop-color="#00B3EC"/>
</linearGradient>
<linearGradient id="paint11_linear" x1="28.0363" y1="51.0209" x2="118.667" y2="80.968" gradientUnits="userSpaceOnUse">
<stop stop-color="#7BFFDA"/>
<stop offset="1" stop-color="#9D9BFF"/>
</linearGradient>
<linearGradient id="paint12_linear" x1="66.264" y1="74.6866" x2="101.869" y2="86.4516" gradientUnits="userSpaceOnUse">
<stop stop-color="#7BFFDA"/>
<stop offset="1" stop-color="#9D9BFF"/>
</linearGradient>
<linearGradient id="paint13_linear" x1="378.122" y1="342.463" x2="414.83" y2="369.9" gradientUnits="userSpaceOnUse">
<stop stop-color="#FFC58F"/>
<stop offset="1" stop-color="#FF7C7C"/>
</linearGradient>
<linearGradient id="paint14_linear" x1="394.716" y1="356.744" x2="409.672" y2="367.922" gradientUnits="userSpaceOnUse">
<stop stop-color="white"/>
<stop offset="1" stop-color="white"/>
</linearGradient>
<linearGradient id="paint15_linear" x1="404.716" y1="356.744" x2="419.672" y2="367.922" gradientUnits="userSpaceOnUse">
<stop stop-color="#FFEAD6"/>
<stop offset="1" stop-color="#FFE2E2"/>
</linearGradient>
<linearGradient id="paint16_linear" x1="131" y1="94" x2="147.408" y2="118.166" gradientUnits="userSpaceOnUse">
<stop stop-color="#7BFFDA" stop-opacity="0"/>
<stop offset="1" stop-color="#9D9BFF"/>
</linearGradient>
<linearGradient id="paint17_linear" x1="396" y1="314" x2="417.637" y2="303.772" gradientUnits="userSpaceOnUse">
<stop stop-color="#FFC58F" stop-opacity="0"/>
<stop offset="1" stop-color="#FF7C7C"/>
</linearGradient>
<linearGradient id="paint18_linear" x1="175.098" y1="301.173" x2="184.54" y2="304.203" gradientUnits="userSpaceOnUse">
<stop stop-color="#FFBE74"/>
<stop offset="1" stop-color="#E491FF"/>
</linearGradient>
<linearGradient id="paint19_linear" x1="131.098" y1="301.173" x2="140.54" y2="304.203" gradientUnits="userSpaceOnUse">
<stop stop-color="#FFBE74"/>
<stop offset="1" stop-color="#E491FF"/>
</linearGradient>
<linearGradient id="paint20_linear" x1="139" y1="305" x2="151.093" y2="326.745" gradientUnits="userSpaceOnUse">
<stop offset="0.0001" stop-color="#FFBE74" stop-opacity="0"/>
<stop offset="1" stop-color="#E491FF"/>
</linearGradient>
<linearGradient id="paint21_linear" x1="70.5169" y1="284.908" x2="120.083" y2="300.817" gradientUnits="userSpaceOnUse">
<stop stop-color="#FFF4E7"/>
<stop offset="1" stop-color="#F7DEFF"/>
</linearGradient>
<linearGradient id="paint22_linear" x1="82.2215" y1="296.389" x2="103.464" y2="303.207" gradientUnits="userSpaceOnUse">
<stop stop-color="#FFBE74"/>
<stop offset="1" stop-color="#E491FF"/>
</linearGradient>
<linearGradient id="paint23_linear" x1="392.098" y1="129.173" x2="401.54" y2="132.203" gradientUnits="userSpaceOnUse">
<stop stop-color="#FFBE74"/>
<stop offset="1" stop-color="#E491FF"/>
</linearGradient>
<linearGradient id="paint24_linear" x1="392.098" y1="85.173" x2="401.54" y2="88.2033" gradientUnits="userSpaceOnUse">
<stop stop-color="#FFBE74"/>
<stop offset="1" stop-color="#E491FF"/>
</linearGradient>
<linearGradient id="paint25_linear" x1="396" y1="89.5" x2="372.627" y2="102.703" gradientUnits="userSpaceOnUse">
<stop offset="0.0001" stop-color="#FFBE74" stop-opacity="0"/>
<stop offset="1" stop-color="#E491FF"/>
</linearGradient>
<linearGradient id="paint26_linear" x1="375.517" y1="24.9081" x2="425.083" y2="40.8172" gradientUnits="userSpaceOnUse">
<stop stop-color="#FFF4E7"/>
<stop offset="1" stop-color="#F7DEFF"/>
</linearGradient>
<linearGradient id="paint27_linear" x1="387.222" y1="36.3892" x2="408.464" y2="43.2074" gradientUnits="userSpaceOnUse">
<stop stop-color="#FFBE74"/>
<stop offset="1" stop-color="#E491FF"/>
</linearGradient>
</defs>
</svg>
